<svg width="172" height="130" viewBox="0 0 172 130" fill="none" xmlns="http://www.w3.org/2000/svg">
<mask id="mask0_5_281" style="mask-type:luminance" maskUnits="userSpaceOnUse" x="4" y="0" width="105" height="83">
<path d="M4.34424 0L108.501 0V82.7621H4.34424V0Z" fill="white"/>
</mask>
<g mask="url(#mask0_5_281)">
<path fill-rule="evenodd" clip-rule="evenodd" d="M24.6771 23.6963C22.0849 23.8898 15.7687 24.7607 10.9069 28.6695C7.26494 31.596 4.3678 36.1528 4.34434 43.3136C4.32381 50.2544 7.42036 54.6148 11.2734 57.377C15.6309 60.5029 21.0704 61.4471 23.9176 61.7345C24.4807 63.6493 24.8677 66.0655 25.0261 68.687C25.1991 71.5431 25.0964 74.6396 24.6038 77.6306L23.7886 82.5951L28.3689 80.5131C33.3539 78.2171 42.667 76.3169 52.4434 76.4313C54.9007 76.4577 57.3814 76.6336 59.8504 76.8858C61.5013 77.0559 63.1317 77.2377 64.7621 77.4899C66.8558 77.8154 68.8732 78.1936 70.8848 78.7302C73.0107 79.2933 75.0047 79.8768 76.9811 80.7829C75.4622 79.2522 73.8816 77.9151 72.0489 76.7304C70.2397 75.5604 68.3102 74.6426 66.2693 73.8421C64.6624 73.2087 63.0115 72.716 61.3166 72.3202C60.1994 72.0563 59.0646 71.8686 57.9239 71.7161C53.6016 71.1326 49.2237 71.1267 45.0979 71.4111C39.5235 71.7953 34.4037 72.8069 30.401 74.0415C30.5183 72.1061 30.5125 70.1913 30.401 68.3615C30.1518 64.2856 29.3747 60.6378 28.3396 58.1482L27.6534 56.4915H25.8618C25.8618 56.4915 19.2552 56.5266 14.3582 53.0518C11.684 51.1517 9.59028 48.1196 9.57562 43.3136C9.55802 38.1439 11.5285 34.7951 14.1413 32.6633C17.7598 29.7105 22.4368 28.9363 24.6273 28.7311C24.6888 29.4554 24.7798 30.1709 24.9 30.8775C25.8706 36.5193 28.5859 41.3225 32.4976 43.6977C29.3249 40.8299 27.7385 35.9769 27.6886 30.6254C27.6476 26.2562 28.7472 21.6172 31.1077 17.4856C32.3833 15.2482 34.0664 13.219 36.1396 11.445C40.1686 8.00829 45.8016 5.72694 53.4316 5.81491C61.6949 5.86769 67.2164 8.36897 70.8789 11.7851C78.0837 18.5031 78.0837 28.4965 78.0837 28.4965V31.8071L81.3708 31.4142C81.3708 31.4142 89.9977 30.3204 96.5222 33.8949C100.161 35.8889 103.032 39.4839 103.055 45.7855C103.105 51.8144 100.95 55.2951 97.9737 57.2069C95.5252 58.7787 92.6397 59.3212 90.1942 59.5528C87.863 59.7727 85.8983 59.7024 84.9893 59.6466C85.1213 59.459 85.2503 59.2684 85.3705 59.0748C86.0185 58.0221 86.5258 56.8902 86.8572 55.6763C87.0976 54.7936 87.2765 53.911 87.3205 52.9727C87.4143 50.9875 87.1211 49.0287 86.3616 46.9291C86.2913 48.105 86.0831 49.143 85.8162 50.2045C85.4174 51.8056 84.7606 53.1662 83.9923 54.5004C83.4909 55.3713 82.9044 56.1513 82.2974 56.9284C81.8957 57.4415 81.4676 57.9312 81.0453 58.4239C79.9516 59.6994 78.7904 60.887 77.4151 61.8664C75.207 63.4381 72.8025 64.6287 70.0725 65.0773C73.0254 65.5611 75.946 65.2884 78.6994 64.2797C79.673 63.9249 80.5849 63.4557 81.4529 62.9074C81.057 64.7049 80.8518 66.5552 80.887 68.4788C80.9456 71.98 81.623 75.5281 82.4499 79.2229C82.6552 75.5604 83.0598 72.0973 83.8222 68.7896C84.1858 67.215 84.6433 65.7254 85.2561 64.312C86.5082 64.5202 88.3703 64.7342 90.505 64.6756C93.7482 64.5876 97.5631 63.7871 100.841 61.7784C105.143 59.1452 108.641 54.3802 108.709 45.7855C108.741 38.8359 106.181 34.2351 102.668 31.1561C96.921 26.1184 88.2471 25.4234 83.6991 25.4469C83.1097 21.1891 81.1831 13.3363 74.8816 7.48341C70.3687 3.29017 63.6214 0.0499479 53.455 0.0264893C45.6843 0.0323543 39.5939 2.04393 35.04 5.2695C33.5591 6.31927 32.2337 7.48634 31.0843 8.7707C29.2955 10.7676 27.8763 12.9903 26.8529 15.3509C25.6829 18.0427 24.9616 20.8783 24.6771 23.6963Z" fill="black"/>
</g>
<path d="M17.8168 108.088L11.9405 96.382L11.7293 100.311C11.6589 101.455 11.6003 102.587 11.5534 103.713C11.5065 104.839 11.4156 105.915 11.2836 106.938C11.1487 107.956 10.9435 108.897 10.662 109.765C10.3863 110.633 9.98459 111.39 9.45383 112.029C8.92895 112.662 8.24571 113.161 7.4012 113.519C6.56256 113.879 5.51278 114.058 4.24602 114.058C3.68887 114.058 3.15519 114.011 2.6391 113.917C2.12887 113.823 1.68023 113.7 1.29023 113.542C0.900226 113.378 0.586466 113.187 0.35188 112.967C0.117293 112.741 0 112.495 0 112.228C0 112.035 0.0293237 111.838 0.0821053 111.642C0.13782 111.439 0.219925 111.255 0.328421 111.091C0.439849 110.92 0.571805 110.783 0.727218 110.68C0.885564 110.572 1.05857 110.516 1.25504 110.516C1.3782 110.516 1.48376 110.58 1.57173 110.703C1.66556 110.821 1.7594 110.97 1.85323 111.149C1.95293 111.331 2.06729 111.525 2.19338 111.736C2.31654 111.941 2.48075 112.132 2.68602 112.31C2.88835 112.483 3.13173 112.633 3.41323 112.756C3.69474 112.873 4.04955 112.932 4.4806 112.932C5.31632 112.932 6.02007 112.788 6.59188 112.498C7.16075 112.211 7.62993 111.794 7.9994 111.255C8.37474 110.709 8.65917 110.047 8.85564 109.272C9.04917 108.498 9.19579 107.625 9.28962 106.645C9.33654 106.106 9.37759 105.584 9.41865 105.073C9.46556 104.566 9.50662 104.062 9.54767 103.56C9.59459 103.062 9.63564 102.552 9.67669 102.035C9.71481 101.519 9.75293 100.974 9.79399 100.393C9.84677 99.5577 9.89368 98.7601 9.93474 98.0006C9.98165 97.2441 10.0168 96.5403 10.0403 95.8893C10.0696 95.2325 10.0931 94.646 10.1107 94.1299C10.1341 93.608 10.1488 93.1535 10.1576 92.7693C9.96992 92.3881 9.80571 92.0773 9.66496 91.8427C9.52421 91.6081 9.37466 91.4293 9.21925 91.3032C9.0697 91.18 8.90256 91.0979 8.71489 91.0569C8.53308 91.0099 8.31023 90.9865 8.04632 90.9865C7.83519 90.9865 7.56541 91.0305 7.23699 91.1155C6.91444 91.1947 6.58308 91.312 6.24 91.4674C5.90278 91.6169 5.56263 91.8046 5.21955 92.0304C4.87353 92.2503 4.56857 92.5054 4.30466 92.7928C4.03782 93.0831 3.81789 93.4027 3.64782 93.7546C3.48361 94.1006 3.4015 94.4701 3.4015 94.8689C3.4015 95.2208 3.44256 95.5023 3.53053 95.7134C3.62436 95.9187 3.73286 96.0711 3.85895 96.1708C3.9821 96.2735 4.1082 96.3409 4.23429 96.3702C4.35744 96.3937 4.44835 96.4054 4.50406 96.4054C4.77677 96.4054 4.99962 96.3644 5.17263 96.2764C5.3515 96.1826 5.51278 96.0858 5.65353 95.9832C5.79429 95.8747 5.92624 95.7779 6.05233 95.6899C6.17549 95.5961 6.32211 95.5492 6.48632 95.5492C6.60947 95.5492 6.74729 95.5814 6.89684 95.643C7.04346 95.6987 7.18128 95.7926 7.30737 95.9245C7.43053 96.0506 7.53609 96.2236 7.62406 96.4406C7.7091 96.6517 7.75308 96.9069 7.75308 97.203C7.75308 97.6429 7.66511 98.0211 7.49504 98.3408C7.33083 98.6545 7.11383 98.9155 6.84993 99.1266C6.58308 99.3378 6.27812 99.499 5.93504 99.6075C5.58902 99.7102 5.24887 99.76 4.91459 99.76C4.3897 99.76 3.91759 99.672 3.49534 99.4902C3.07895 99.3114 2.72414 99.065 2.42797 98.7513C2.13767 98.4317 1.91481 98.0593 1.7594 97.637C1.60985 97.2089 1.53654 96.7544 1.53654 96.2764C1.53654 95.1445 1.79752 94.1593 2.32241 93.3206C2.84436 92.4761 3.53053 91.7723 4.37504 91.2093C5.22541 90.6405 6.18722 90.2182 7.26045 89.9426C8.33075 89.6611 9.42158 89.5203 10.5329 89.5203C11.4244 89.5203 12.1662 89.6112 12.7615 89.7901C13.3626 89.9719 13.8641 90.2094 14.2629 90.5056C14.6675 90.8047 15.0018 91.1566 15.2598 91.5612C15.5238 91.96 15.7671 92.3823 15.9871 92.828L20.2917 101.59C21.4177 99.3788 22.4382 97.3995 23.3531 95.6547C24.2738 93.9041 25.1271 92.3647 25.9101 91.0334C26.6989 89.705 27.4349 88.5761 28.1152 87.6436C28.7955 86.7053 29.4523 85.9399 30.0857 85.3447C30.7191 84.7523 31.3466 84.3213 31.9741 84.0544C32.6075 83.7817 33.2585 83.6439 33.9329 83.6439C34.5106 83.6439 34.9798 83.7671 35.3405 84.0075C35.6982 84.2509 35.88 84.6175 35.88 85.1101C35.88 85.5499 35.8038 85.9077 35.6571 86.1892C35.5164 86.4707 35.3199 86.6114 35.0707 86.6114C34.8654 86.6114 34.71 86.5352 34.6015 86.3769C34.4901 86.2214 34.3845 86.0484 34.2848 85.8608C34.1822 85.6731 34.0532 85.503 33.8977 85.3447C33.7482 85.1893 33.5253 85.1101 33.2292 85.1101C33.0562 85.1101 32.845 85.1629 32.5958 85.2626C32.3436 85.3564 32.0826 85.503 31.8099 85.6966C31.5431 85.893 31.2821 86.1393 31.0241 86.4355C30.766 86.7258 30.5373 87.0689 30.3438 87.4677C30.1473 87.8606 29.9948 88.3063 29.8863 88.8048C29.7749 89.3063 29.7397 89.8546 29.7808 90.4469C29.8277 91.136 29.8863 91.9424 29.9567 92.8632C30.0329 93.7781 30.1209 94.7633 30.2147 95.819C30.3086 96.8687 30.4053 97.9537 30.508 99.0797C30.6077 100.2 30.7132 101.302 30.8247 102.387C30.9332 103.475 31.0387 104.519 31.1414 105.519C31.2498 106.522 31.3466 107.428 31.4346 108.24C31.5196 109.055 31.5988 109.742 31.6692 110.305C31.7454 110.862 31.8099 111.24 31.8568 111.442C31.9184 111.765 32.0035 112.017 32.1149 112.205C32.2234 112.392 32.4198 112.486 32.7014 112.486C32.9975 112.486 33.2761 112.436 33.5341 112.334C33.798 112.234 34.0326 112.129 34.2379 112.017L34.5077 112.627C34.3112 112.768 34.062 112.929 33.757 113.108C33.4579 113.29 33.1148 113.46 32.7248 113.624C32.3407 113.782 31.9184 113.914 31.458 114.023C30.9947 114.131 30.4992 114.187 29.9684 114.187C29.2177 114.187 28.6225 114.093 28.1856 113.906C27.7457 113.718 27.4114 113.489 27.1768 113.214C26.9423 112.932 26.781 112.636 26.6959 112.322C26.6168 112.011 26.5581 111.73 26.52 111.478C26.4174 110.923 26.3118 110.255 26.2033 109.472C26.0919 108.692 25.9863 107.85 25.8866 106.95C25.784 106.053 25.6814 105.126 25.5817 104.17C25.4878 103.217 25.3969 102.288 25.3119 101.379C25.2327 100.473 25.1594 99.6163 25.089 98.8099C25.0245 98.0065 24.9747 97.3027 24.9365 96.6987C24.6081 97.2382 24.3032 97.7543 24.0217 98.2469C23.746 98.7396 23.4762 99.2439 23.2123 99.76C22.9543 100.276 22.6874 100.822 22.4147 101.39C22.1479 101.953 21.8635 102.569 21.5585 103.232C21.2594 103.898 20.9368 104.628 20.585 105.425C20.2331 106.217 19.8402 107.103 19.412 108.088H17.8168Z" fill="black"/>
<path d="M40.9406 100.429C41.354 99.7953 41.7968 99.2264 42.266 98.7162C42.4595 98.4992 42.6707 98.288 42.8994 98.0828C43.1252 97.8717 43.3598 97.684 43.6031 97.5198C43.8524 97.3556 44.1075 97.2265 44.3655 97.1327C44.6295 97.033 44.8934 96.9802 45.1514 96.9802C45.7056 96.9802 46.1396 97.1503 46.4534 97.4846C46.773 97.813 46.9343 98.2763 46.9343 98.8686C46.9343 99.244 46.902 99.6047 46.8404 99.9477C46.7847 100.294 46.6674 100.707 46.4886 101.191H46.0311C45.9666 100.857 45.8141 100.578 45.5737 100.358C45.3391 100.132 44.9901 100.018 44.5298 100.018C44.1925 100.018 43.8612 100.083 43.5328 100.206C43.2102 100.332 42.8935 100.487 42.5827 100.675C42.2689 100.857 41.9728 101.056 41.6913 101.273C41.4156 101.493 41.1664 101.701 40.9406 101.895V112.486C40.9406 112.636 40.9171 112.809 40.8702 113.002C40.8292 113.199 40.7236 113.384 40.5535 113.554C40.3893 113.727 40.1371 113.876 39.8028 113.999C39.4744 114.123 39.0199 114.187 38.4422 114.187C37.8616 114.187 37.4042 114.117 37.0699 113.976C36.7415 113.844 36.4893 113.689 36.3192 113.507C36.1462 113.319 36.0377 113.129 35.9908 112.932C35.9498 112.739 35.9322 112.58 35.9322 112.463V99.8539C35.9322 99.5431 35.8559 99.2674 35.7093 99.0329C35.5598 98.7983 35.3134 98.681 34.9704 98.681C34.7827 98.681 34.6214 98.7132 34.4895 98.7748C34.3634 98.8393 34.2226 98.9332 34.0672 99.0563L33.7271 98.6458C33.9763 98.4435 34.2549 98.2411 34.5598 98.0359C34.8707 97.8335 35.2079 97.6576 35.5686 97.508C35.9263 97.3526 36.3134 97.2265 36.7298 97.1327C37.1432 97.033 37.5772 96.9802 38.0317 96.9802C38.5009 96.9802 38.8997 97.0447 39.2281 97.1679C39.5624 97.294 39.838 97.4582 40.0492 97.6605C40.2603 97.8658 40.4245 98.0916 40.5418 98.3408C40.6649 98.593 40.7558 98.8452 40.8116 99.1032C40.8731 99.3554 40.9083 99.5959 40.9171 99.8305C40.9318 100.065 40.9406 100.264 40.9406 100.429Z" fill="black"/>
<path d="M53.412 98.2822C53.1599 98.2822 52.9223 98.3174 52.6965 98.3877C52.4766 98.4523 52.2772 98.5578 52.0983 98.7044C51.9253 98.854 51.7875 99.0417 51.6878 99.2674C51.594 99.4874 51.5471 99.7483 51.5471 100.053C51.5471 100.476 51.7025 100.898 52.0162 101.32C52.3271 101.736 52.7141 102.17 53.1774 102.622C53.6378 103.077 54.1393 103.546 54.6788 104.03C55.2183 104.516 55.7168 105.027 56.1802 105.566C56.6405 106.1 57.0247 106.669 57.3296 107.279C57.6405 107.888 57.7988 108.542 57.7988 109.237C57.7988 110.029 57.6639 110.727 57.4 111.337C57.1332 111.947 56.749 112.463 56.2505 112.885C55.7579 113.307 55.1597 113.633 54.4559 113.859C53.758 114.076 52.981 114.187 52.1218 114.187C51.3711 114.187 50.6908 114.082 50.0809 113.87C49.471 113.659 48.9256 113.401 48.4505 113.096C47.9814 112.785 47.5767 112.457 47.2424 112.111C46.9052 111.759 46.6442 111.44 46.4565 111.149L47.0313 110.75C47.172 110.909 47.348 111.085 47.5591 111.278C47.7761 111.466 48.0195 111.642 48.2863 111.806C48.559 111.97 48.8493 112.105 49.1543 112.205C49.4592 112.308 49.7671 112.357 50.0809 112.357C50.8609 112.357 51.5031 112.17 52.0045 111.794C52.503 111.419 52.7552 110.865 52.7552 110.129C52.7552 109.715 52.6174 109.29 52.3447 108.85C52.0778 108.405 51.7377 107.947 51.3242 107.478C50.9078 107.009 50.4592 106.525 49.9753 106.024C49.4974 105.525 49.0517 105.009 48.6382 104.475C48.2218 103.945 47.8787 103.396 47.606 102.833C47.3392 102.264 47.2072 101.672 47.2072 101.062C47.2072 100.376 47.3421 99.7777 47.6177 99.2674C47.8992 98.7514 48.2687 98.3262 48.732 97.9889C49.1924 97.6547 49.7202 97.4025 50.3155 97.2383C50.9078 97.0682 51.5236 96.9802 52.157 96.9802C52.8842 96.9802 53.544 97.0477 54.1393 97.1796C54.7404 97.3057 55.2565 97.5051 55.6875 97.7778C56.1156 98.0447 56.4499 98.3819 56.6845 98.7865C56.9191 99.1853 57.0364 99.6516 57.0364 100.182C57.0364 100.599 56.8986 100.956 56.6259 101.261C56.3502 101.566 55.972 101.719 55.4881 101.719C55.0189 101.719 54.6583 101.619 54.409 101.414C54.1656 101.212 54.0454 100.939 54.0454 100.593C54.0454 100.358 54.0982 100.179 54.2096 100.053C54.3269 99.9214 54.4559 99.8158 54.5967 99.7366C54.7433 99.6516 54.8723 99.5812 54.9838 99.5255C55.1011 99.4639 55.1597 99.3818 55.1597 99.2792C55.1597 98.9742 54.9955 98.7338 54.6671 98.552C54.3386 98.3731 53.9193 98.2822 53.412 98.2822Z" fill="black"/>
<path d="M77.0591 102.634C76.7219 102.634 76.4375 102.584 76.2029 102.481C75.9742 102.373 75.7923 102.232 75.6516 102.059C75.5108 101.889 75.4053 101.695 75.3349 101.484C75.2704 101.267 75.2411 101.044 75.2411 100.816C75.2411 100.528 75.2587 100.247 75.2997 99.9712C75.3378 99.6985 75.3408 99.4522 75.3114 99.2323C75.288 99.0153 75.2059 98.8423 75.0651 98.7162C74.9244 98.5842 74.6722 98.5168 74.3145 98.5168C73.9303 98.5168 73.5286 98.6282 73.1063 98.8452C72.6841 99.0651 72.297 99.4082 71.9451 99.8774C71.5991 100.341 71.3117 100.939 71.0772 101.672C70.8484 102.408 70.737 103.291 70.737 104.323C70.737 105.472 70.8426 106.516 71.0537 107.455C71.2707 108.393 71.5933 109.196 72.0155 109.859C72.4378 110.525 72.9656 111.041 73.599 111.407C74.2323 111.777 74.9713 111.959 75.8158 111.959C76.197 111.959 76.5606 111.918 76.9066 111.83C77.2497 111.736 77.5752 111.615 77.8802 111.466C78.1851 111.311 78.4725 111.135 78.7481 110.938C79.0296 110.736 79.2994 110.522 79.5575 110.293L79.968 110.68C79.7158 111.017 79.3962 111.39 79.0062 111.794C78.6133 112.193 78.1411 112.574 77.5869 112.932C77.0298 113.284 76.3817 113.577 75.6399 113.812C74.8951 114.038 74.0505 114.152 73.1063 114.152C72.1592 114.152 71.2355 113.97 70.3382 113.612C69.438 113.246 68.6404 112.715 67.9454 112.017C67.2475 111.322 66.6904 110.478 66.2681 109.484C65.8517 108.484 65.6465 107.346 65.6465 106.07C65.6465 105.085 65.7696 104.179 66.0218 103.349C66.2711 102.514 66.6112 101.76 67.0423 101.085C67.4704 100.405 67.9718 99.8129 68.5436 99.3026C69.1125 98.7865 69.7166 98.3614 70.3499 98.0241C70.9833 97.6811 71.6284 97.423 72.2853 97.25C72.9421 97.0711 73.5755 96.9802 74.1854 96.9802C74.9889 96.9802 75.6897 97.0741 76.285 97.2617C76.8861 97.4435 77.3875 97.684 77.7863 97.9889C78.1851 98.2939 78.4813 98.6458 78.6778 99.0446C78.8713 99.4434 78.971 99.8539 78.971 100.276C78.971 100.599 78.927 100.904 78.842 101.191C78.7628 101.473 78.6455 101.725 78.4901 101.942C78.3317 102.153 78.1323 102.323 77.8919 102.446C77.6485 102.572 77.3699 102.634 77.0591 102.634Z" fill="black"/>
<path d="M80.2856 105.566C80.2856 104.144 80.4909 102.898 80.9073 101.824C81.3208 100.754 81.872 99.8598 82.5611 99.1384C83.2561 98.42 84.0566 97.8805 84.9656 97.5198C85.8805 97.162 86.8365 96.9802 87.8393 96.9802C88.8481 96.9802 89.804 97.1503 90.713 97.4846C91.6279 97.813 92.4284 98.3232 93.1175 99.0094C93.8125 99.6897 94.3667 100.558 94.7831 101.613C95.1965 102.663 95.4047 103.906 95.4047 105.343C95.4047 106.768 95.1965 108.029 94.7831 109.132C94.3667 110.228 93.8125 111.149 93.1175 111.9C92.4284 112.651 91.6279 113.222 90.713 113.612C89.804 113.994 88.8481 114.187 87.8393 114.187C86.8365 114.187 85.8805 114.005 84.9656 113.648C84.0566 113.281 83.2561 112.739 82.5611 112.017C81.872 111.299 81.3208 110.404 80.9073 109.331C80.4909 108.252 80.2856 106.997 80.2856 105.566ZM90.3259 105.402C90.3259 104.534 90.2937 103.698 90.2321 102.892C90.1764 102.08 90.0591 101.355 89.8802 100.722C89.7072 100.088 89.458 99.5841 89.1296 99.2088C88.807 98.8335 88.3789 98.6458 87.8393 98.6458C87.3056 98.6458 86.8775 98.8452 86.5491 99.244C86.2265 99.6428 85.9773 100.168 85.7984 100.816C85.6254 101.458 85.5111 102.194 85.4583 103.021C85.4026 103.851 85.3762 104.698 85.3762 105.566C85.3762 106.443 85.4026 107.299 85.4583 108.135C85.5111 108.965 85.6254 109.707 85.7984 110.363C85.9773 111.014 86.2265 111.536 86.5491 111.935C86.8775 112.328 87.3056 112.522 87.8393 112.522C88.3789 112.522 88.807 112.316 89.1296 111.9C89.458 111.486 89.7072 110.944 89.8802 110.27C90.0591 109.598 90.1764 108.839 90.2321 107.994C90.2937 107.144 90.3259 106.279 90.3259 105.402Z" fill="black"/>
<path d="M96.5747 105.566C96.5747 104.144 96.78 102.898 97.1964 101.824C97.6098 100.754 98.1611 99.8598 98.8502 99.1384C99.5452 98.42 100.346 97.8805 101.255 97.5198C102.17 97.162 103.126 96.9802 104.128 96.9802C105.137 96.9802 106.093 97.1503 107.002 97.4846C107.917 97.813 108.717 98.3232 109.407 99.0094C110.102 99.6897 110.656 100.558 111.072 101.613C111.486 102.663 111.694 103.906 111.694 105.343C111.694 106.768 111.486 108.029 111.072 109.132C110.656 110.228 110.102 111.149 109.407 111.9C108.717 112.651 107.917 113.222 107.002 113.612C106.093 113.994 105.137 114.187 104.128 114.187C103.126 114.187 102.17 114.005 101.255 113.648C100.346 113.281 99.5452 112.739 98.8502 112.017C98.1611 111.299 97.6098 110.404 97.1964 109.331C96.78 108.252 96.5747 106.997 96.5747 105.566ZM106.615 105.402C106.615 104.534 106.583 103.698 106.521 102.892C106.465 102.08 106.348 101.355 106.169 100.722C105.996 100.088 105.747 99.5841 105.419 99.2088C105.096 98.8335 104.668 98.6458 104.128 98.6458C103.595 98.6458 103.167 98.8452 102.838 99.244C102.516 99.6428 102.266 100.168 102.087 100.816C101.914 101.458 101.8 102.194 101.747 103.021C101.692 103.851 101.665 104.698 101.665 105.566C101.665 106.443 101.692 107.299 101.747 108.135C101.8 108.965 101.914 109.707 102.087 110.363C102.266 111.014 102.516 111.536 102.838 111.935C103.167 112.328 103.595 112.522 104.128 112.522C104.668 112.522 105.096 112.316 105.419 111.9C105.747 111.486 105.996 110.944 106.169 110.27C106.348 109.598 106.465 108.839 106.521 107.994C106.583 107.144 106.615 106.279 106.615 105.402Z" fill="black"/>
<path d="M118.951 101.426C119.332 100.909 119.74 100.39 120.171 99.8656C120.608 99.3348 121.077 98.8568 121.578 98.4346C122.077 98.0123 122.622 97.6663 123.209 97.3907C123.801 97.118 124.446 96.9802 125.144 96.9802C125.76 96.9802 126.276 97.1062 126.692 97.3555C127.106 97.5989 127.437 97.8921 127.689 98.2352C127.947 98.5724 128.126 98.9272 128.229 99.3026C128.337 99.672 128.393 99.9829 128.393 100.241C128.393 100.728 128.328 101.226 128.205 101.742C128.079 102.258 127.865 102.772 127.56 103.279C127.261 103.78 126.862 104.27 126.364 104.745C125.862 105.223 125.232 105.657 124.475 106.047C125.499 108.214 126.493 110.079 127.455 111.642C128.422 113.199 129.358 114.48 130.258 115.489C131.155 116.498 132.02 117.24 132.85 117.718C133.677 118.193 134.469 118.433 135.219 118.433C135.343 118.433 135.472 118.415 135.606 118.386C135.738 118.354 135.859 118.316 135.97 118.269C136.087 118.228 136.211 118.175 136.345 118.105L136.65 118.679C136.36 118.844 136.064 118.999 135.759 119.149C135.454 119.295 135.102 119.421 134.703 119.524C134.31 119.632 133.862 119.717 133.354 119.782C132.844 119.852 132.234 119.888 131.525 119.888C130.882 119.888 130.249 119.808 129.625 119.653C128.997 119.503 128.369 119.234 127.736 118.844C127.103 118.451 126.461 117.929 125.812 117.272C125.17 116.621 124.511 115.797 123.83 114.797C123.15 113.797 122.449 112.604 121.731 111.22C121.009 109.835 120.265 108.217 119.49 106.364C120.537 105.598 121.358 104.886 121.954 104.229C122.555 103.566 123.009 102.968 123.314 102.434C123.619 101.904 123.807 101.431 123.877 101.015C123.953 100.602 123.994 100.247 123.994 99.9477C123.994 99.9096 123.989 99.8392 123.983 99.7365C123.974 99.6281 123.939 99.5254 123.877 99.4316C123.813 99.3319 123.725 99.2439 123.607 99.1735C123.496 99.0973 123.341 99.0562 123.138 99.0562C122.731 99.0562 122.32 99.2293 121.907 99.5723C121.49 99.9184 121.097 100.344 120.722 100.851C120.347 101.352 120.006 101.895 119.702 102.481C119.397 103.062 119.144 103.59 118.951 104.065V112.486C118.951 112.636 118.927 112.809 118.88 113.002C118.834 113.199 118.719 113.384 118.54 113.554C118.359 113.727 118.098 113.876 117.754 113.999C117.408 114.123 116.948 114.187 116.37 114.187C115.79 114.187 115.338 114.117 115.01 113.976C114.687 113.844 114.45 113.689 114.294 113.507C114.136 113.319 114.039 113.129 114.001 112.932C113.96 112.739 113.942 112.58 113.942 112.463V91.397C113.942 91.0862 113.866 90.8105 113.72 90.5759C113.57 90.3414 113.324 90.2241 112.981 90.2241C112.793 90.2241 112.629 90.2563 112.488 90.3179C112.353 90.3736 112.212 90.4587 112.066 90.5759L111.737 90.1889C111.987 89.9778 112.265 89.7754 112.57 89.579C112.875 89.3766 113.206 89.2007 113.567 89.0511C113.934 88.8957 114.324 88.7696 114.74 88.6758C115.153 88.5761 115.587 88.5233 116.042 88.5233C116.752 88.5233 117.303 88.623 117.696 88.8165C118.086 89.0042 118.37 89.2388 118.552 89.5203C118.74 89.7959 118.851 90.0892 118.892 90.4C118.93 90.705 118.951 90.9806 118.951 91.2211V101.426Z" fill="black"/>
<path d="M136.024 112.463C136.024 112.604 136.001 112.777 135.954 112.979C135.907 113.175 135.792 113.363 135.614 113.542C135.432 113.724 135.171 113.876 134.828 113.999C134.49 114.123 134.036 114.187 133.467 114.187C132.886 114.187 132.435 114.117 132.106 113.976C131.778 113.844 131.532 113.689 131.368 113.507C131.203 113.319 131.101 113.128 131.063 112.932C131.03 112.738 131.016 112.58 131.016 112.463V99.8538C131.016 99.543 130.939 99.2674 130.793 99.0328C130.643 98.7982 130.397 98.6809 130.054 98.6809C129.866 98.6809 129.705 98.7131 129.573 98.7747C129.447 98.8392 129.306 98.9331 129.151 99.0562L128.811 98.6457C129.06 98.4434 129.338 98.241 129.643 98.0358C129.954 97.8334 130.291 97.6575 130.652 97.508C131.01 97.3525 131.397 97.2264 131.813 97.1326C132.227 97.0329 132.661 96.9801 133.115 96.9801C133.825 96.9801 134.376 97.0798 134.769 97.2734C135.159 97.461 135.443 97.6956 135.625 97.9771C135.813 98.2528 135.924 98.546 135.965 98.8568C136.004 99.1706 136.024 99.4492 136.024 99.6896V112.463ZM130.511 93.2619C130.511 92.957 130.576 92.6696 130.711 92.394C130.843 92.1125 131.03 91.872 131.274 91.6668C131.523 91.4556 131.807 91.2914 132.13 91.1741C132.45 91.051 132.801 90.9865 133.186 90.9865C133.552 90.9865 133.895 91.051 134.218 91.1741C134.537 91.2914 134.819 91.4556 135.062 91.6668C135.303 91.872 135.49 92.1125 135.625 92.394C135.757 92.6696 135.825 92.957 135.825 93.2619C135.825 93.5757 135.757 93.8689 135.625 94.1416C135.49 94.4173 135.303 94.6548 135.062 94.8571C134.819 95.0536 134.537 95.2149 134.218 95.338C133.895 95.4553 133.552 95.514 133.186 95.514C132.801 95.514 132.45 95.4553 132.13 95.338C131.807 95.2149 131.523 95.0536 131.274 94.8571C131.03 94.6548 130.843 94.4173 130.711 94.1416C130.576 93.8689 130.511 93.5757 130.511 93.2619Z" fill="black"/>
<path d="M148.908 105.801C148.908 104.425 148.843 103.326 148.72 102.505C148.594 101.684 148.427 101.059 148.216 100.628C148.011 100.2 147.785 99.9184 147.536 99.7835C147.283 99.6428 147.025 99.5724 146.761 99.5724C146.448 99.5724 146.166 99.6604 145.917 99.8305C145.674 100.003 145.462 100.2 145.284 100.417C145.102 100.628 144.949 100.845 144.826 101.062C144.7 101.282 144.594 101.446 144.509 101.555V112.463C144.509 112.604 144.486 112.777 144.439 112.979C144.398 113.175 144.292 113.363 144.122 113.542C143.958 113.724 143.706 113.876 143.372 113.999C143.043 114.123 142.589 114.187 142.011 114.187C141.43 114.187 140.973 114.117 140.639 113.976C140.31 113.844 140.058 113.689 139.888 113.507C139.715 113.319 139.607 113.129 139.56 112.932C139.519 112.739 139.501 112.58 139.501 112.463V99.8539C139.501 99.5431 139.425 99.2674 139.278 99.0329C139.129 98.7983 138.882 98.681 138.539 98.681C138.352 98.681 138.19 98.7132 138.058 98.7748C137.932 98.8393 137.791 98.9332 137.636 99.0563L137.296 98.6458C137.545 98.4435 137.824 98.2411 138.129 98.0359C138.44 97.8335 138.777 97.6576 139.137 97.508C139.495 97.3526 139.882 97.2265 140.299 97.1327C140.712 97.033 141.146 96.9802 141.601 96.9802C142.31 96.9802 142.861 97.0975 143.254 97.3321C143.644 97.5667 143.929 97.8482 144.111 98.1766C144.298 98.4992 144.41 98.8393 144.451 99.1971C144.489 99.5489 144.509 99.848 144.509 100.088C144.914 99.5108 145.372 98.9918 145.882 98.5285C146.084 98.335 146.316 98.1473 146.574 97.9655C146.832 97.7778 147.105 97.6107 147.395 97.4611C147.682 97.3145 147.987 97.1972 148.31 97.1092C148.629 97.0242 148.958 96.9802 149.295 96.9802C150.037 96.9802 150.694 97.121 151.266 97.4025C151.834 97.684 152.315 98.159 152.708 98.8217C153.098 99.4874 153.394 100.367 153.6 101.461C153.811 102.558 153.916 103.912 153.916 105.531C153.916 107.111 153.776 108.484 153.494 109.648C153.213 110.815 152.84 111.806 152.38 112.627C151.925 113.442 151.409 114.105 150.832 114.621C150.251 115.137 149.67 115.539 149.084 115.829C148.497 116.125 147.934 116.334 147.395 116.451C146.855 116.568 146.389 116.63 145.999 116.639L145.811 115.97C146.14 115.891 146.439 115.771 146.715 115.606C146.996 115.448 147.248 115.211 147.477 114.891C147.712 114.577 147.914 114.178 148.087 113.695C148.257 113.211 148.407 112.604 148.533 111.876C148.656 111.143 148.75 110.278 148.814 109.284C148.876 108.293 148.908 107.132 148.908 105.801Z" fill="black"/>
<path d="M155.752 103.654C155.752 102.546 155.942 101.575 156.327 100.745C156.717 99.9096 157.236 99.2146 157.887 98.6575C158.543 98.0945 159.3 97.6781 160.162 97.4024C161.021 97.1209 161.924 96.9802 162.871 96.9802C163.816 96.9802 164.713 97.1063 165.557 97.3555C166.408 97.6077 167.164 97.9948 167.821 98.5167C168.024 98.1971 168.191 97.8657 168.326 97.5197C168.458 97.1678 168.525 96.8218 168.525 96.4758C168.525 96.0154 168.399 95.6518 168.15 95.385C167.906 95.1123 167.593 94.9745 167.211 94.9745V94.4936C167.452 94.4232 167.663 94.3587 167.845 94.2942C168.032 94.2326 168.2 94.1857 168.349 94.1534C168.504 94.1241 168.657 94.1006 168.807 94.083C168.962 94.0684 169.135 94.0596 169.323 94.0596C169.83 94.0596 170.22 94.2208 170.496 94.5405C170.768 94.8542 170.906 95.2882 170.906 95.8424C170.906 96.165 170.827 96.4846 170.671 96.8042C170.522 97.1268 170.334 97.4347 170.108 97.7308C169.88 98.0299 169.628 98.3056 169.346 98.5636C169.07 98.8217 168.809 99.0533 168.56 99.2557C169.012 99.7718 169.364 100.382 169.616 101.085C169.865 101.783 169.991 102.575 169.991 103.466C169.991 104.587 169.795 105.575 169.405 106.434C169.021 107.296 168.502 108.017 167.845 108.604C167.194 109.19 166.44 109.636 165.581 109.941C164.719 110.24 163.816 110.387 162.871 110.387C162.314 110.387 161.772 110.34 161.241 110.246C160.707 110.146 160.209 110 159.74 109.812C159.567 109.947 159.417 110.111 159.294 110.305C159.168 110.501 159.106 110.721 159.106 110.962C159.106 111.36 159.276 111.659 159.622 111.853C159.974 112.049 160.435 112.193 161.007 112.287C161.584 112.375 162.238 112.428 162.965 112.451C163.698 112.469 164.449 112.504 165.217 112.557C165.983 112.604 166.73 112.695 167.458 112.826C168.191 112.961 168.845 113.184 169.416 113.495C169.994 113.809 170.454 114.228 170.8 114.762C171.152 115.293 171.328 115.985 171.328 116.838C171.328 117.454 171.193 118.011 170.93 118.503C170.671 119.002 170.323 119.442 169.886 119.817C169.446 120.193 168.936 120.512 168.349 120.779C167.768 121.043 167.156 121.26 166.508 121.424C165.857 121.594 165.197 121.72 164.525 121.799C163.86 121.876 163.223 121.917 162.613 121.917C161.502 121.917 160.502 121.858 159.611 121.741C158.725 121.623 157.972 121.442 157.347 121.201C156.728 120.967 156.25 120.656 155.916 120.275C155.579 119.899 155.412 119.445 155.412 118.914C155.412 118.53 155.497 118.178 155.67 117.858C155.84 117.536 156.071 117.243 156.362 116.979C156.649 116.712 156.975 116.468 157.335 116.251C157.693 116.04 158.057 115.844 158.426 115.665C157.887 115.43 157.432 115.081 157.065 114.621C156.705 114.158 156.526 113.551 156.526 112.791C156.526 112.387 156.596 112.011 156.737 111.665C156.878 111.322 157.057 111.008 157.277 110.727C157.502 110.44 157.749 110.176 158.016 109.941C158.279 109.706 158.537 109.507 158.79 109.343C158.344 109.079 157.933 108.756 157.558 108.381C157.183 108.006 156.86 107.583 156.596 107.114C156.329 106.639 156.121 106.114 155.975 105.543C155.825 104.965 155.752 104.334 155.752 103.654ZM165.077 103.525C165.077 102.892 165.041 102.279 164.971 101.684C164.907 101.083 164.795 100.552 164.631 100.088C164.473 99.6193 164.25 99.241 163.962 98.9507C163.681 98.6633 163.317 98.5167 162.871 98.5167C162.426 98.5167 162.062 98.6663 161.781 98.9624C161.499 99.2615 161.276 99.6515 161.112 100.135C160.948 100.622 160.831 101.173 160.76 101.789C160.696 102.408 160.666 103.03 160.666 103.654C160.666 104.305 160.696 104.939 160.76 105.554C160.831 106.173 160.948 106.727 161.112 107.22C161.276 107.707 161.499 108.1 161.781 108.405C162.062 108.704 162.426 108.85 162.871 108.85C163.317 108.85 163.681 108.695 163.962 108.381C164.25 108.061 164.473 107.651 164.631 107.149C164.795 106.642 164.907 106.07 164.971 105.437C165.041 104.804 165.077 104.167 165.077 103.525ZM167.563 118.14C167.563 117.794 167.425 117.509 167.153 117.284C166.877 117.064 166.519 116.885 166.074 116.744C165.634 116.609 165.135 116.509 164.572 116.439C164.015 116.369 163.449 116.313 162.871 116.275C162.291 116.234 161.728 116.199 161.182 116.169C160.643 116.137 160.174 116.093 159.775 116.04C159.54 116.196 159.317 116.369 159.106 116.556C158.895 116.75 158.71 116.955 158.555 117.166C158.397 117.377 158.268 117.6 158.168 117.835C158.074 118.069 158.027 118.307 158.027 118.55C158.027 118.964 158.145 119.307 158.379 119.583C158.62 119.864 158.945 120.087 159.353 120.251C159.757 120.415 160.232 120.527 160.772 120.591C161.311 120.653 161.88 120.685 162.484 120.685C163.273 120.685 163.986 120.618 164.619 120.486C165.253 120.351 165.783 120.169 166.214 119.934C166.651 119.7 166.983 119.43 167.211 119.125C167.446 118.82 167.563 118.492 167.563 118.14Z" fill="black"/>
<path d="M47.7988 129.777V123.291H52.0683C52.7955 123.291 53.3615 123.449 53.7691 123.76C54.1737 124.065 54.379 124.499 54.379 125.062C54.379 125.399 54.2793 125.692 54.0857 125.942C53.8981 126.185 53.6342 126.352 53.2999 126.446V126.458C53.6899 126.546 53.9948 126.722 54.2148 126.986C54.4318 127.252 54.5432 127.584 54.5432 127.983C54.5432 128.54 54.3321 128.977 53.9098 129.296C53.4934 129.619 52.9128 129.777 52.1621 129.777H47.7988ZM49.4996 125.977H51.6695C51.9891 125.977 52.2384 125.906 52.4202 125.766C52.5991 125.619 52.69 125.423 52.69 125.179C52.69 124.939 52.5991 124.751 52.4202 124.616C52.2384 124.475 51.9891 124.405 51.6695 124.405H49.4996V125.977ZM49.4879 128.651H51.7282C52.0712 128.651 52.3439 128.578 52.5492 128.428C52.7515 128.282 52.8542 128.076 52.8542 127.818C52.8542 127.554 52.7515 127.346 52.5492 127.197C52.3439 127.041 52.0712 126.962 51.7282 126.962H49.4879V128.651Z" fill="#333333"/>
<path d="M58.4864 129.777V127.49L55.7534 123.291H57.5597L59.3309 126.176H59.3426L61.0316 123.291H62.8614L60.1754 127.49V129.777H58.4864Z" fill="#333333"/>
<path d="M67.5225 129.777V123.291H69.751L71.9913 128.088H72.0031L74.2434 123.291H76.4719V129.777H74.8885V125.191H74.865L72.742 129.777H71.2758L69.1176 125.203H69.1059V129.777H67.5225Z" fill="#333333"/>
<path d="M84.3144 129.953C83.9391 129.953 83.6341 129.853 83.3995 129.66C83.1708 129.466 83.0007 129.226 82.8834 128.944L82.5198 128.053C82.4318 127.851 82.3116 127.689 82.1562 127.572C81.9979 127.449 81.8161 127.384 81.6049 127.384H80.1153V129.777H78.4146V123.291H82.6371C83.4259 123.291 84.0476 123.473 84.5021 123.83C84.9536 124.182 85.1824 124.669 85.1824 125.285C85.1824 125.748 85.0299 126.138 84.7249 126.458C84.42 126.78 83.9977 126.991 83.4582 127.091V127.103C83.6048 127.159 83.7309 127.249 83.8335 127.373C83.9332 127.49 84.0153 127.631 84.0798 127.795L84.4082 128.569C84.461 128.672 84.5197 128.757 84.5842 128.827C84.6546 128.892 84.7484 128.921 84.8657 128.921C84.9419 128.921 85.024 128.897 85.112 128.85C85.2058 128.804 85.2821 128.739 85.3466 128.651L85.6985 129.413C85.5401 129.572 85.3378 129.701 85.0885 129.801C84.8364 129.9 84.5783 129.953 84.3144 129.953ZM80.1153 126.293H82.2852C82.6518 126.293 82.9421 126.211 83.1532 126.047C83.3702 125.877 83.4816 125.654 83.4816 125.379C83.4816 125.091 83.3702 124.863 83.1532 124.698C82.9421 124.528 82.6518 124.44 82.2852 124.44H80.1153V126.293Z" fill="#333333"/>
<path d="M90.3962 130C89.8479 130 89.3347 129.924 88.8597 129.777C88.3817 129.63 87.9712 129.422 87.6281 129.155C87.2909 128.883 87.0446 128.557 86.8892 128.182L87.98 127.513C88.0973 127.765 88.2791 127.988 88.5313 128.182C88.7805 128.378 89.0737 128.531 89.411 128.639C89.7453 128.751 90.103 128.804 90.4783 128.804C90.9475 128.804 91.314 128.727 91.5809 128.569C91.8536 128.414 91.9914 128.214 91.9914 127.971C91.9914 127.777 91.8859 127.616 91.6747 127.49C91.4636 127.367 91.1234 127.267 90.6543 127.197L89.5165 127.021C88.6867 126.897 88.0856 126.689 87.7102 126.399C87.3349 126.103 87.1472 125.692 87.1472 125.167C87.1472 124.731 87.2762 124.355 87.5343 124.041C87.7982 123.731 88.1618 123.49 88.6251 123.326C89.0855 123.156 89.6162 123.068 90.2203 123.068C90.6719 123.068 91.0941 123.132 91.4871 123.256C91.8859 123.373 92.2319 123.543 92.531 123.76C92.8271 123.971 93.0412 124.226 93.1761 124.522L92.1674 125.214C91.9943 124.918 91.7334 124.684 91.3815 124.511C91.0296 124.332 90.6367 124.241 90.2086 124.241C89.7922 124.241 89.452 124.317 89.1881 124.464C88.9301 124.613 88.801 124.801 88.801 125.027C88.801 125.208 88.889 125.352 89.0708 125.461C89.2497 125.572 89.5429 125.657 89.9505 125.719L91.1 125.895C91.9826 126.021 92.6277 126.241 93.0353 126.551C93.44 126.856 93.6453 127.279 93.6453 127.818C93.6453 128.264 93.5074 128.651 93.2347 128.979C92.9591 129.302 92.5808 129.551 92.097 129.73C91.6102 129.909 91.0443 130 90.3962 130Z" fill="#333333"/>
<path d="M95.1523 127.783V126.833H98.6477V127.783H95.1523Z" fill="#333333"/>
<path d="M100.471 129.777V123.291H105.961V124.616H102.172V126.153H105.409V127.302H102.172V129.777H100.471Z" fill="#333333"/>
<path d="M107.572 129.777V123.291H109.261V129.777H107.572Z" fill="#333333"/>
<path d="M111.2 129.777V123.291H112.889V129.777H111.2Z" fill="#333333"/>
</svg>
