<svg width="140" height="26" viewBox="0 0 140 26" fill="none" xmlns="http://www.w3.org/2000/svg">
<path d="M6.01657 24.9735H7.56795L9.88508 9.43981L10.0144 8.40555H10.2232V24.9735H13.5845V0.270752H9.14916L6.99116 11.558L6.82209 12.8707H6.76243L6.59337 11.558L4.43536 0.270752H0V24.9735H3.36132V8.40555H3.56022L3.69944 9.43981L6.01657 24.9735Z" fill="black"/>
<path d="M24.5442 24.9735H28.174L25.847 13.01C26.5431 12.5401 27.0528 11.7942 27.3785 10.7724C27.7017 9.75307 27.8658 8.62434 27.8658 7.39119C27.8658 5.06412 27.3785 3.29893 26.4039 2.09064C25.4293 0.877381 23.8531 0.270752 21.6801 0.270752H18.0503V24.9735H21.6801V14.5514H22.6547L24.5442 24.9735ZM21.6801 11.1901V3.8608C21.9238 3.8608 22.2022 3.88567 22.5155 3.93042C22.8337 3.97766 23.1271 4.12434 23.4006 4.36799C23.6641 4.59423 23.8928 4.9597 24.0868 5.46191C24.2782 5.9666 24.3752 6.65528 24.3752 7.53042C24.3752 8.40555 24.2782 9.08677 24.0868 9.56909C23.8928 10.0464 23.6641 10.4094 23.4006 10.6531C23.1271 10.8793 22.8337 11.026 22.5155 11.0906C22.2022 11.1578 21.9238 11.1901 21.6801 11.1901Z" fill="black"/>
<path d="M37.9825 6.89383L41.5526 6.5557C41.5526 5.85957 41.488 5.12863 41.3637 4.35792C41.2369 3.58223 40.9957 2.85626 40.6377 2.18002C40.2797 1.53112 39.7675 1.00157 39.1062 0.588858C38.4499 0.171179 37.5698 -0.0227441 36.4709 0.00211805C35.6206 0.0220075 34.8921 0.208472 34.283 0.559024C33.6789 0.904604 33.1891 1.34466 32.8112 1.88167C32.4258 2.43858 32.1499 3.06261 31.9858 3.75129C31.8192 4.43499 31.7372 5.11123 31.7372 5.78001C31.7372 6.45129 31.8366 7.11012 32.0355 7.75902C32.3935 9.03941 32.9852 10.3198 33.8156 11.5977C34.2184 12.2217 34.6112 12.8159 34.9891 13.3778C35.372 13.9347 35.7449 14.4717 36.1029 14.9888C36.2819 15.235 36.4435 15.4836 36.5902 15.7347C36.7344 15.9808 36.8885 16.227 37.0477 16.4706C37.3112 16.9629 37.5349 17.4402 37.714 17.9027C37.893 18.3601 37.9825 18.7927 37.9825 19.1955C37.9825 19.9786 37.8681 20.6275 37.6443 21.1446C37.4256 21.6568 37.0477 21.9104 36.5106 21.9104C36.1253 21.9104 35.8195 21.7886 35.5957 21.5424C35.3695 21.2988 35.2029 20.9731 35.0985 20.5679C34.9593 20.19 34.8722 19.7499 34.8399 19.2452C34.8051 18.743 34.7902 18.2308 34.7902 17.7137L31.23 18.0518C31.23 18.9667 31.2896 19.8593 31.409 20.727C31.5333 21.5897 31.7769 22.3554 32.135 23.0242C32.5178 23.6955 33.0524 24.2325 33.7361 24.6353C34.4173 25.038 35.3421 25.2419 36.5106 25.2419C37.4902 25.2419 38.3057 25.0678 38.957 24.7248C39.6059 24.3742 40.1231 23.9192 40.5084 23.3623C40.8863 22.7806 41.1548 22.1192 41.314 21.3833C41.4731 20.6424 41.5526 19.8568 41.5526 19.0264C41.5526 18.3502 41.4482 17.6938 41.2443 17.0574C41.0454 16.4209 40.7869 15.7894 40.4686 15.1579C40.1554 14.5289 39.7974 13.9024 39.3946 13.2784C38.9894 12.6493 38.5742 12.0203 38.1515 11.3889C37.7935 10.8792 37.4454 10.3795 37.1073 9.88719C36.7742 9.38996 36.4733 8.90764 36.2024 8.43526C35.9363 7.96537 35.7175 7.5104 35.546 7.07283C35.3794 6.63526 35.2974 6.20515 35.2974 5.78001C35.2974 5.06399 35.3869 4.48471 35.5659 4.03968C35.7449 3.58969 36.0681 3.35101 36.5405 3.32366C36.8314 3.32366 37.07 3.43057 37.2565 3.64189C37.4479 3.85571 37.5996 4.12919 37.714 4.46731C37.8258 4.82532 37.8979 5.22062 37.9327 5.65073C37.9651 6.07587 37.9825 6.49106 37.9825 6.89383Z" fill="black"/>
<path d="M61.6821 16.5005H58.2909V19.9016C58.2909 20.2994 58.2437 20.6027 58.1517 20.8066C58.0647 21.0527 57.928 21.2641 57.744 21.4431C57.565 21.6221 57.2865 21.7116 56.9086 21.7116C56.6152 21.7116 56.3815 21.6221 56.2025 21.4431C55.8445 21.0652 55.6556 20.553 55.6357 19.9016V5.34253C55.6556 5.16352 55.6755 5.00192 55.6954 4.85523C55.7202 4.71103 55.755 4.57181 55.7948 4.43755C55.8868 4.2138 56.0161 4.00744 56.1827 3.82098C56.3542 3.62954 56.5954 3.53258 56.9086 3.53258C57.2865 3.53258 57.5675 3.62208 57.7539 3.80109C58.1119 4.17899 58.2909 4.69363 58.2909 5.34253V8.73368H61.6821V5.34253C61.6349 4.33562 61.4335 3.45054 61.0755 2.68728C60.9164 2.34916 60.7199 2.01849 60.4887 1.6928C60.255 1.3696 59.9716 1.08369 59.6335 0.837556C59.2954 0.593909 58.8976 0.395014 58.4401 0.240871C57.9827 0.0817552 57.4481 0.00219727 56.839 0.00219727C56.2349 0.00219727 55.6978 0.0817552 55.228 0.240871C54.7556 0.395014 54.3528 0.593909 54.0147 0.837556C53.6815 1.08369 53.4031 1.3696 53.1793 1.6928C52.9531 2.01849 52.7617 2.34916 52.6025 2.68728C52.2445 3.45054 52.0456 4.33562 52.0059 5.34253V19.9016C52.0456 20.9309 52.2445 21.8259 52.6025 22.5867C52.7617 22.9248 52.9531 23.2505 53.1793 23.5613C53.4031 23.8746 53.6815 24.1555 54.0147 24.4066C54.7108 24.9635 55.6506 25.242 56.839 25.242C58.005 25.242 58.9373 24.9635 59.6335 24.4066C59.9716 24.1555 60.255 23.8746 60.4887 23.5613C60.7199 23.2505 60.9164 22.9248 61.0755 22.5867C61.4335 21.8259 61.6349 20.9309 61.6821 19.9016V16.5005Z" fill="black"/>
<path d="M75.0932 19.9016V5.34253C75.046 4.33562 74.8446 3.45054 74.4866 2.68728C74.3275 2.34916 74.1311 2.01849 73.8999 1.6928C73.6662 1.3696 73.3827 1.08369 73.0446 0.837556C72.7065 0.593909 72.3087 0.395014 71.8512 0.240871C71.3938 0.0817552 70.8593 0.00219727 70.2501 0.00219727C69.646 0.00219727 69.109 0.0817552 68.6391 0.240871C68.1667 0.395014 67.764 0.593909 67.4258 0.837556C67.0927 1.08369 66.8142 1.3696 66.5905 1.6928C66.3642 2.01849 66.1728 2.34916 66.0137 2.68728C65.6557 3.45054 65.4568 4.33562 65.417 5.34253V19.9016C65.4568 20.9309 65.6557 21.8259 66.0137 22.5867C66.1728 22.9248 66.3642 23.2505 66.5905 23.5613C66.8142 23.8746 67.0927 24.1555 67.4258 24.4066C68.122 24.9635 69.0617 25.242 70.2501 25.242C71.4162 25.242 72.3485 24.9635 73.0446 24.4066C73.3827 24.1555 73.6662 23.8746 73.8999 23.5613C74.1311 23.2505 74.3275 22.9248 74.4866 22.5867C74.8446 21.8259 75.046 20.9309 75.0932 19.9016ZM71.4634 5.34253V19.9016C71.4634 20.2994 71.4162 20.6027 71.3242 20.8066C71.257 21.0527 71.1402 21.2641 70.9761 21.4431C70.8095 21.6221 70.5684 21.7116 70.2501 21.7116C69.9568 21.7116 69.7231 21.6221 69.5441 21.4431C69.2109 21.0652 69.0468 20.553 69.0468 19.9016V5.34253C69.0468 4.98451 69.0891 4.68369 69.1761 4.43755C69.2407 4.2138 69.3576 4.00744 69.5242 3.82098C69.6957 3.62954 69.9369 3.53258 70.2501 3.53258C70.5684 3.53258 70.817 3.62208 70.996 3.80109C71.3068 4.17899 71.4634 4.69363 71.4634 5.34253Z" fill="black"/>
<path d="M88.7739 19.9016V5.34253C88.7267 4.33562 88.5253 3.45054 88.1673 2.68728C88.0081 2.34916 87.8117 2.01849 87.5805 1.6928C87.3468 1.3696 87.0634 1.08369 86.7253 0.837556C86.3872 0.593909 85.9894 0.395014 85.5319 0.240871C85.0744 0.0817552 84.5399 0.00219727 83.9308 0.00219727C83.3267 0.00219727 82.7896 0.0817552 82.3198 0.240871C81.8474 0.395014 81.4446 0.593909 81.1065 0.837556C80.7733 1.08369 80.4949 1.3696 80.2711 1.6928C80.0449 2.01849 79.8535 2.34916 79.6943 2.68728C79.3363 3.45054 79.1374 4.33562 79.0977 5.34253V19.9016C79.1374 20.9309 79.3363 21.8259 79.6943 22.5867C79.8535 22.9248 80.0449 23.2505 80.2711 23.5613C80.4949 23.8746 80.7733 24.1555 81.1065 24.4066C81.8026 24.9635 82.7424 25.242 83.9308 25.242C85.0968 25.242 86.0291 24.9635 86.7253 24.4066C87.0634 24.1555 87.3468 23.8746 87.5805 23.5613C87.8117 23.2505 88.0081 22.9248 88.1673 22.5867C88.5253 21.8259 88.7267 20.9309 88.7739 19.9016ZM85.1441 5.34253V19.9016C85.1441 20.2994 85.0968 20.6027 85.0048 20.8066C84.9377 21.0527 84.8209 21.2641 84.6568 21.4431C84.4902 21.6221 84.249 21.7116 83.9308 21.7116C83.6374 21.7116 83.4037 21.6221 83.2247 21.4431C82.8916 21.0652 82.7275 20.553 82.7275 19.9016V5.34253C82.7275 4.98451 82.7698 4.68369 82.8568 4.43755C82.9214 4.2138 83.0383 4.00744 83.2048 3.82098C83.3764 3.62954 83.6175 3.53258 83.9308 3.53258C84.249 3.53258 84.4977 3.62208 84.6767 3.80109C84.9874 4.17899 85.1441 4.69363 85.1441 5.34253Z" fill="black"/>
<path d="M96.6367 0.270752H93.0068V24.9735H96.6367V16.2321L97.482 14.2133L97.6809 13.716H97.7803L97.8798 14.2133L100.406 24.9735H103.936L100.167 8.40555L103.499 0.270752H99.9682L96.945 8.505L96.7759 8.90279H96.6367V0.270752Z" fill="black"/>
<path d="M107.393 0.270752V24.9735H111.023V0.270752H107.393Z" fill="black"/>
<path d="M119.333 12.0951L122.853 24.9735H126.085V0.270752H122.754V14.2829H122.555L122.257 13.1393L118.726 0.270752H115.494V24.9735H118.826V10.9614H119.025L119.333 12.0951Z" fill="black"/>
<path d="M136.37 9.14142H140V5.34253C139.953 4.33562 139.751 3.45054 139.393 2.68728C139.234 2.34916 139.038 2.01849 138.807 1.6928C138.573 1.3696 138.29 1.08369 137.951 0.837556C137.613 0.593909 137.216 0.395014 136.758 0.240871C136.301 0.0817552 135.766 0.00219727 135.157 0.00219727C134.553 0.00219727 134.016 0.0817552 133.546 0.240871C133.074 0.395014 132.671 0.593909 132.333 0.837556C131.999 1.08369 131.721 1.3696 131.497 1.6928C131.271 2.01849 131.08 2.34916 130.92 2.68728C130.562 3.45054 130.364 4.33562 130.324 5.34253V19.9016C130.277 20.911 130.408 21.806 130.722 22.5867C130.853 22.9248 131.025 23.2505 131.239 23.5613C131.457 23.8746 131.711 24.1555 132.004 24.4066C132.315 24.6726 132.676 24.879 133.088 25.0232C133.506 25.1674 134.006 25.242 134.59 25.242C135.172 25.242 135.704 25.1077 136.181 24.8442C136.664 24.5732 137.076 24.2251 137.414 23.8L137.852 24.9735H140V12.6718H134.928V15.7248H136.37V20.2C136.37 20.6052 136.323 20.9061 136.231 21.1049C136.164 21.3511 136.047 21.5674 135.883 21.7514C135.716 21.9304 135.475 22.0199 135.157 22.0199C134.864 22.0199 134.63 21.9304 134.451 21.7514C134.118 21.3685 133.954 20.8514 133.954 20.2V5.34253C133.954 4.98451 133.996 4.68369 134.083 4.43755C134.148 4.2138 134.264 4.00744 134.431 3.82098C134.603 3.62954 134.844 3.53258 135.157 3.53258C135.475 3.53258 135.724 3.62208 135.903 3.80109C136.214 4.17899 136.37 4.69363 136.37 5.34253V9.14142Z" fill="black"/>
</svg>
