<svg width="24" height="20" viewBox="0 0 24 20" fill="none" xmlns="http://www.w3.org/2000/svg">
<path d="M23.3824 6.71166C23.069 6.31846 22.5988 6.09289 22.0923 6.09289H17.5213L15.0426 0.417272C14.889 0.0653771 14.4791 -0.0954349 14.1271 0.0583309C13.7752 0.212004 13.6145 0.621938 13.7682 0.97388L16.0037 6.09293H7.73099L9.96655 0.97388C10.1202 0.621938 9.95955 0.21205 9.60761 0.0583309C9.25571 -0.0954349 8.84578 0.0652844 8.69211 0.417272L6.21345 6.09293H1.64247C1.13598 6.09293 0.665781 6.31846 0.352362 6.7117C0.0446909 7.09776 -0.0688371 7.59406 0.0408897 8.07348L2.4819 18.7356C2.65236 19.4801 3.31095 20 4.08349 20H19.6512C20.4238 20 21.0824 19.4801 21.2528 18.7356L23.6938 8.07344C23.8036 7.59401 23.69 7.09772 23.3824 6.71166ZM19.6512 18.6092H4.08349C3.96542 18.6092 3.862 18.5318 3.83757 18.4251L1.39655 7.76312C1.37741 7.67945 1.40953 7.6165 1.43994 7.57844C1.46813 7.54302 1.53196 7.48364 1.64247 7.48364H5.60613L5.42399 7.90071C5.27032 8.25265 5.43099 8.66254 5.78293 8.81626C5.87351 8.85585 5.9679 8.87458 6.06084 8.87458C6.32888 8.87458 6.5843 8.71868 6.69843 8.45737L7.12367 7.48373H16.6112L17.0364 8.45737C17.1505 8.71873 17.4059 8.87458 17.674 8.87458C17.7669 8.87458 17.8613 8.85585 17.9519 8.81626C18.3038 8.66259 18.4646 8.25265 18.3108 7.90071L18.1287 7.48364H22.0924C22.2029 7.48364 22.2667 7.54302 22.2949 7.57844C22.3252 7.61654 22.3574 7.6795 22.3383 7.76308L19.8973 18.4252C19.8728 18.5318 19.7693 18.6092 19.6512 18.6092Z" fill="#333333"/>
<path d="M7.69523 10.4967C7.31121 10.4967 6.99988 10.808 6.99988 11.192V16.2913C6.99988 16.6753 7.31121 16.9866 7.69523 16.9866C8.07925 16.9866 8.39058 16.6753 8.39058 16.2913V11.192C8.39058 10.808 8.0793 10.4967 7.69523 10.4967Z" fill="#333333"/>
<path d="M11.8674 10.4967C11.4833 10.4967 11.172 10.808 11.172 11.192V16.2913C11.172 16.6753 11.4833 16.9866 11.8674 16.9866C12.2514 16.9866 12.5627 16.6753 12.5627 16.2913V11.192C12.5627 10.808 12.2514 10.4967 11.8674 10.4967Z" fill="#333333"/>
<path d="M16.0396 10.4967C15.6556 10.4967 15.3442 10.808 15.3442 11.192V16.2913C15.3442 16.6753 15.6556 16.9866 16.0396 16.9866C16.4236 16.9866 16.7349 16.6753 16.7349 16.2913V11.192C16.7349 10.808 16.4236 10.4967 16.0396 10.4967Z" fill="#333333"/>
</svg>
